<svg xmlns="http://www.w3.org/2000/svg"  viewBox="0 0 64 64" width="48px" height="48px"><path d="M40.227,12C51.145,12,52,12.854,52,23.773v16.453C52,51.145,51.145,52,40.227,52H23.773C12.855,52,12,51.145,12,40.227	V23.773C12,12.854,12.855,12,23.773,12H40.227z M42.679,23.486c0.601-0.927,0.336-2.166-0.591-2.766	c-0.93-0.6-2.167-0.336-2.767,0.591l-9.709,14.986l-5.11-5.809c-0.729-0.829-1.994-0.911-2.823-0.18	c-0.829,0.729-0.91,1.993-0.181,2.823l6.855,7.791c0.382,0.433,0.93,0.679,1.502,0.679c0.049,0,0.098-0.002,0.146-0.005	c0.625-0.046,1.191-0.382,1.532-0.907L42.679,23.486z"/></svg>